<svg xmlns="http://www.w3.org/2000/svg" viewBox="0 0 100 100">
  <!-- Background circle -->
  <circle cx="50" cy="50" r="48" fill="#1a202c" stroke="#2d3748" stroke-width="2"/>
  
  <!-- Pie chart segments -->
  <path d="M 50 50 L 50 10 A 40 40 0 0 1 82 35 Z" fill="#48bb78" opacity="0.9"/>
  <path d="M 50 50 L 82 35 A 40 40 0 0 1 82 65 Z" fill="#4299e1" opacity="0.9"/>
  <path d="M 50 50 L 82 65 A 40 40 0 0 1 50 90 Z" fill="#ed8936" opacity="0.9"/>
  <path d="M 50 50 L 50 90 A 40 40 0 0 1 18 65 Z" fill="#9f7aea" opacity="0.9"/>
  <path d="M 50 50 L 18 65 A 40 40 0 0 1 18 35 Z" fill="#f56565" opacity="0.9"/>
  <path d="M 50 50 L 18 35 A 40 40 0 0 1 50 10 Z" fill="#ecc94b" opacity="0.9"/>
  
  <!-- Center circle -->
  <circle cx="50" cy="50" r="15" fill="#1a202c"/>
  
  <!-- Dollar sign -->
  <text x="50" y="60" font-family="Arial, sans-serif" font-size="24" font-weight="bold" fill="#48bb78" text-anchor="middle">$</text>
</svg>
